<?xml version="1.0" standalone="no"?>
<!DOCTYPE svg PUBLIC "-//W3C//DTD SVG 20010904//EN"
 "http://www.w3.org/TR/2001/REC-SVG-20010904/DTD/svg10.dtd">
<svg version="1.0" xmlns="http://www.w3.org/2000/svg"
 width="50.000000pt" height="50.000000pt" viewBox="0 0 50.000000 50.000000"
 preserveAspectRatio="xMidYMid meet">

<g transform="translate(0.000000,50.000000) scale(0.100000,-0.100000)"
fill="#000000" stroke="none">
<path d="M100 406 c-19 -26 -28 -31 -38 -24 -7 6 -15 8 -19 5 -8 -8 16 -37 31
-36 12 0 52 48 62 73 11 27 -10 17 -36 -18z"/>
<path d="M190 390 c0 -6 52 -10 135 -10 83 0 135 4 135 10 0 6 -52 10 -135 10
-83 0 -135 -4 -135 -10z"/>
<path d="M100 266 c-19 -26 -28 -31 -38 -24 -7 6 -15 8 -19 5 -8 -8 16 -37 31
-36 12 0 52 48 62 73 11 27 -10 17 -36 -18z"/>
<path d="M190 250 c0 -6 52 -10 135 -10 83 0 135 4 135 10 0 6 -52 10 -135 10
-83 0 -135 -4 -135 -10z"/>
<path d="M100 126 c-19 -26 -28 -31 -38 -24 -7 6 -15 8 -19 5 -8 -8 16 -37 31
-36 12 0 52 48 62 73 11 27 -10 17 -36 -18z"/>
<path d="M190 110 c0 -6 52 -10 135 -10 83 0 135 4 135 10 0 6 -52 10 -135 10
-83 0 -135 -4 -135 -10z"/>
</g>
</svg>
